<?xml version="1.0" encoding="utf-8" standalone="no"?>
<!DOCTYPE svg PUBLIC "-//W3C//DTD SVG 1.1//EN"
  "http://www.w3.org/Graphics/SVG/1.1/DTD/svg11.dtd">
<!-- Created with matplotlib (https://matplotlib.org/) -->
<svg height="396pt" version="1.1" viewBox="0 0 576 396" width="576pt" xmlns="http://www.w3.org/2000/svg" xmlns:xlink="http://www.w3.org/1999/xlink">
 <metadata>
  <rdf:RDF xmlns:cc="http://creativecommons.org/ns#" xmlns:dc="http://purl.org/dc/elements/1.1/" xmlns:rdf="http://www.w3.org/1999/02/22-rdf-syntax-ns#">
   <cc:Work>
    <dc:type rdf:resource="http://purl.org/dc/dcmitype/StillImage"/>
    <dc:date>2020-12-22T13:31:16.835721</dc:date>
    <dc:format>image/svg+xml</dc:format>
    <dc:creator>
     <cc:Agent>
      <dc:title>Matplotlib v3.3.3, https://matplotlib.org/</dc:title>
     </cc:Agent>
    </dc:creator>
   </cc:Work>
  </rdf:RDF>
 </metadata>
 <defs>
  <style type="text/css">*{stroke-linecap:butt;stroke-linejoin:round;}</style>
 </defs>
 <g id="figure_1">
  <g id="patch_1">
   <path d="M 0 396 
L 576 396 
L 576 0 
L 0 0 
z
" style="fill:#ffffff;"/>
  </g>
  <g id="axes_1">
   <g id="patch_2">
    <path d="M 72 346.5 
L 518.4 346.5 
L 518.4 47.52 
L 72 47.52 
z
" style="fill:#ffffff;"/>
   </g>
   <g id="matplotlib.axis_1"/>
   <g id="matplotlib.axis_2"/>
   <g id="PathCollection_1">
    <defs>
     <path d="M 0 3.5 
C 0.928211 3.5 1.81853 3.131218 2.474874 2.474874 
C 3.131218 1.81853 3.5 0.928211 3.5 0 
C 3.5 -0.928211 3.131218 -1.81853 2.474874 -2.474874 
C 1.81853 -3.131218 0.928211 -3.5 0 -3.5 
C -0.928211 -3.5 -1.81853 -3.131218 -2.474874 -2.474874 
C -3.131218 -1.81853 -3.5 -0.928211 -3.5 0 
C -3.5 0.928211 -3.131218 1.81853 -2.474874 2.474874 
C -1.81853 3.131218 -0.928211 3.5 0 3.5 
z
" id="mc0d9ef8276" style="stroke:#f7aa00;stroke-opacity:0.7;stroke-width:0.3;"/>
    </defs>
    <g clip-path="url(#p696d5f0367)">
     <use style="fill:#f7aa00;fill-opacity:0.7;stroke:#f7aa00;stroke-opacity:0.7;stroke-width:0.3;" x="215.440166" xlink:href="#mc0d9ef8276" y="208.49148"/>
     <use style="fill:#f7aa00;fill-opacity:0.7;stroke:#f7aa00;stroke-opacity:0.7;stroke-width:0.3;" x="116.856571" xlink:href="#mc0d9ef8276" y="165.759544"/>
     <use style="fill:#f7aa00;fill-opacity:0.7;stroke:#f7aa00;stroke-opacity:0.7;stroke-width:0.3;" x="397.570893" xlink:href="#mc0d9ef8276" y="332.91"/>
     <use style="fill:#f7aa00;fill-opacity:0.7;stroke:#f7aa00;stroke-opacity:0.7;stroke-width:0.3;" x="142.102549" xlink:href="#mc0d9ef8276" y="211.289747"/>
     <use style="fill:#f7aa00;fill-opacity:0.7;stroke:#f7aa00;stroke-opacity:0.7;stroke-width:0.3;" x="359.458626" xlink:href="#mc0d9ef8276" y="142.239863"/>
     <use style="fill:#f7aa00;fill-opacity:0.7;stroke:#f7aa00;stroke-opacity:0.7;stroke-width:0.3;" x="214.544679" xlink:href="#mc0d9ef8276" y="325.048688"/>
     <use style="fill:#f7aa00;fill-opacity:0.7;stroke:#f7aa00;stroke-opacity:0.7;stroke-width:0.3;" x="196.04994" xlink:href="#mc0d9ef8276" y="329.164347"/>
     <use style="fill:#f7aa00;fill-opacity:0.7;stroke:#f7aa00;stroke-opacity:0.7;stroke-width:0.3;" x="216.845229" xlink:href="#mc0d9ef8276" y="88.686454"/>
     <use style="fill:#f7aa00;fill-opacity:0.7;stroke:#f7aa00;stroke-opacity:0.7;stroke-width:0.3;" x="102.288436" xlink:href="#mc0d9ef8276" y="247.256334"/>
     <use style="fill:#f7aa00;fill-opacity:0.7;stroke:#f7aa00;stroke-opacity:0.7;stroke-width:0.3;" x="92.290909" xlink:href="#mc0d9ef8276" y="235.632439"/>
     <use style="fill:#f7aa00;fill-opacity:0.7;stroke:#f7aa00;stroke-opacity:0.7;stroke-width:0.3;" x="390.77052" xlink:href="#mc0d9ef8276" y="311.72646"/>
     <use style="fill:#f7aa00;fill-opacity:0.7;stroke:#f7aa00;stroke-opacity:0.7;stroke-width:0.3;" x="98.85214" xlink:href="#mc0d9ef8276" y="196.679945"/>
     <use style="fill:#f7aa00;fill-opacity:0.7;stroke:#f7aa00;stroke-opacity:0.7;stroke-width:0.3;" x="212.817558" xlink:href="#mc0d9ef8276" y="138.712236"/>
     <use style="fill:#f7aa00;fill-opacity:0.7;stroke:#f7aa00;stroke-opacity:0.7;stroke-width:0.3;" x="241.653814" xlink:href="#mc0d9ef8276" y="183.417552"/>
     <use style="fill:#f7aa00;fill-opacity:0.7;stroke:#f7aa00;stroke-opacity:0.7;stroke-width:0.3;" x="243.873318" xlink:href="#mc0d9ef8276" y="100.965197"/>
     <use style="fill:#f7aa00;fill-opacity:0.7;stroke:#f7aa00;stroke-opacity:0.7;stroke-width:0.3;" x="181.745255" xlink:href="#mc0d9ef8276" y="77.500188"/>
     <use style="fill:#f7aa00;fill-opacity:0.7;stroke:#f7aa00;stroke-opacity:0.7;stroke-width:0.3;" x="264.655672" xlink:href="#mc0d9ef8276" y="142.209583"/>
     <use style="fill:#f7aa00;fill-opacity:0.7;stroke:#f7aa00;stroke-opacity:0.7;stroke-width:0.3;" x="132.390916" xlink:href="#mc0d9ef8276" y="145.116289"/>
     <use style="fill:#f7aa00;fill-opacity:0.7;stroke:#f7aa00;stroke-opacity:0.7;stroke-width:0.3;" x="384.18117" xlink:href="#mc0d9ef8276" y="290.585943"/>
     <use style="fill:#f7aa00;fill-opacity:0.7;stroke:#f7aa00;stroke-opacity:0.7;stroke-width:0.3;" x="117.526065" xlink:href="#mc0d9ef8276" y="83.018619"/>
     <use style="fill:#f7aa00;fill-opacity:0.7;stroke:#f7aa00;stroke-opacity:0.7;stroke-width:0.3;" x="230.666528" xlink:href="#mc0d9ef8276" y="78.812439"/>
     <use style="fill:#f7aa00;fill-opacity:0.7;stroke:#f7aa00;stroke-opacity:0.7;stroke-width:0.3;" x="186.482788" xlink:href="#mc0d9ef8276" y="175.841295"/>
     <use style="fill:#f7aa00;fill-opacity:0.7;stroke:#f7aa00;stroke-opacity:0.7;stroke-width:0.3;" x="270.337979" xlink:href="#mc0d9ef8276" y="155.216505"/>
     <use style="fill:#f7aa00;fill-opacity:0.7;stroke:#f7aa00;stroke-opacity:0.7;stroke-width:0.3;" x="196.6978" xlink:href="#mc0d9ef8276" y="160.606222"/>
     <use style="fill:#f7aa00;fill-opacity:0.7;stroke:#f7aa00;stroke-opacity:0.7;stroke-width:0.3;" x="159.04965" xlink:href="#mc0d9ef8276" y="174.990775"/>
     <use style="fill:#f7aa00;fill-opacity:0.7;stroke:#f7aa00;stroke-opacity:0.7;stroke-width:0.3;" x="189.031278" xlink:href="#mc0d9ef8276" y="236.284772"/>
     <use style="fill:#f7aa00;fill-opacity:0.7;stroke:#f7aa00;stroke-opacity:0.7;stroke-width:0.3;" x="172.606858" xlink:href="#mc0d9ef8276" y="158.582284"/>
     <use style="fill:#f7aa00;fill-opacity:0.7;stroke:#f7aa00;stroke-opacity:0.7;stroke-width:0.3;" x="320.619763" xlink:href="#mc0d9ef8276" y="265.304434"/>
     <use style="fill:#f7aa00;fill-opacity:0.7;stroke:#f7aa00;stroke-opacity:0.7;stroke-width:0.3;" x="347.785764" xlink:href="#mc0d9ef8276" y="153.119874"/>
     <use style="fill:#f7aa00;fill-opacity:0.7;stroke:#f7aa00;stroke-opacity:0.7;stroke-width:0.3;" x="299.696952" xlink:href="#mc0d9ef8276" y="143.996656"/>
     <use style="fill:#f7aa00;fill-opacity:0.7;stroke:#f7aa00;stroke-opacity:0.7;stroke-width:0.3;" x="154.959348" xlink:href="#mc0d9ef8276" y="135.522013"/>
     <use style="fill:#f7aa00;fill-opacity:0.7;stroke:#f7aa00;stroke-opacity:0.7;stroke-width:0.3;" x="186.030808" xlink:href="#mc0d9ef8276" y="284.274356"/>
     <use style="fill:#f7aa00;fill-opacity:0.7;stroke:#f7aa00;stroke-opacity:0.7;stroke-width:0.3;" x="413.788791" xlink:href="#mc0d9ef8276" y="296.455613"/>
     <use style="fill:#f7aa00;fill-opacity:0.7;stroke:#f7aa00;stroke-opacity:0.7;stroke-width:0.3;" x="153.930709" xlink:href="#mc0d9ef8276" y="285.117572"/>
     <use style="fill:#f7aa00;fill-opacity:0.7;stroke:#f7aa00;stroke-opacity:0.7;stroke-width:0.3;" x="311.821359" xlink:href="#mc0d9ef8276" y="211.22616"/>
     <use style="fill:#f7aa00;fill-opacity:0.7;stroke:#f7aa00;stroke-opacity:0.7;stroke-width:0.3;" x="345.959851" xlink:href="#mc0d9ef8276" y="61.11"/>
     <use style="fill:#f7aa00;fill-opacity:0.7;stroke:#f7aa00;stroke-opacity:0.7;stroke-width:0.3;" x="363.57417" xlink:href="#mc0d9ef8276" y="77.680425"/>
     <use style="fill:#f7aa00;fill-opacity:0.7;stroke:#f7aa00;stroke-opacity:0.7;stroke-width:0.3;" x="283.509847" xlink:href="#mc0d9ef8276" y="197.290379"/>
     <use style="fill:#f7aa00;fill-opacity:0.7;stroke:#f7aa00;stroke-opacity:0.7;stroke-width:0.3;" x="184.250691" xlink:href="#mc0d9ef8276" y="117.005989"/>
     <use style="fill:#f7aa00;fill-opacity:0.7;stroke:#f7aa00;stroke-opacity:0.7;stroke-width:0.3;" x="347.762034" xlink:href="#mc0d9ef8276" y="95.64796"/>
     <use style="fill:#f7aa00;fill-opacity:0.7;stroke:#f7aa00;stroke-opacity:0.7;stroke-width:0.3;" x="169.431608" xlink:href="#mc0d9ef8276" y="244.10942"/>
     <use style="fill:#f7aa00;fill-opacity:0.7;stroke:#f7aa00;stroke-opacity:0.7;stroke-width:0.3;" x="316.087941" xlink:href="#mc0d9ef8276" y="65.577704"/>
     <use style="fill:#f7aa00;fill-opacity:0.7;stroke:#f7aa00;stroke-opacity:0.7;stroke-width:0.3;" x="333.703987" xlink:href="#mc0d9ef8276" y="79.812142"/>
     <use style="fill:#f7aa00;fill-opacity:0.7;stroke:#f7aa00;stroke-opacity:0.7;stroke-width:0.3;" x="307.13448" xlink:href="#mc0d9ef8276" y="93.258293"/>
     <use style="fill:#f7aa00;fill-opacity:0.7;stroke:#f7aa00;stroke-opacity:0.7;stroke-width:0.3;" x="305.746457" xlink:href="#mc0d9ef8276" y="184.769557"/>
     <use style="fill:#f7aa00;fill-opacity:0.7;stroke:#f7aa00;stroke-opacity:0.7;stroke-width:0.3;" x="284.295517" xlink:href="#mc0d9ef8276" y="249.296484"/>
     <use style="fill:#f7aa00;fill-opacity:0.7;stroke:#f7aa00;stroke-opacity:0.7;stroke-width:0.3;" x="172.628627" xlink:href="#mc0d9ef8276" y="200.94238"/>
     <use style="fill:#f7aa00;fill-opacity:0.7;stroke:#f7aa00;stroke-opacity:0.7;stroke-width:0.3;" x="420.479724" xlink:href="#mc0d9ef8276" y="317.755581"/>
     <use style="fill:#f7aa00;fill-opacity:0.7;stroke:#f7aa00;stroke-opacity:0.7;stroke-width:0.3;" x="133.274074" xlink:href="#mc0d9ef8276" y="65.11939"/>
     <use style="fill:#f7aa00;fill-opacity:0.7;stroke:#f7aa00;stroke-opacity:0.7;stroke-width:0.3;" x="283.825412" xlink:href="#mc0d9ef8276" y="270.348387"/>
     <use style="fill:#f7aa00;fill-opacity:0.7;stroke:#f7aa00;stroke-opacity:0.7;stroke-width:0.3;" x="334.523856" xlink:href="#mc0d9ef8276" y="192.771714"/>
     <use style="fill:#f7aa00;fill-opacity:0.7;stroke:#f7aa00;stroke-opacity:0.7;stroke-width:0.3;" x="232.582938" xlink:href="#mc0d9ef8276" y="244.429164"/>
     <use style="fill:#f7aa00;fill-opacity:0.7;stroke:#f7aa00;stroke-opacity:0.7;stroke-width:0.3;" x="257.244532" xlink:href="#mc0d9ef8276" y="274.287039"/>
     <use style="fill:#f7aa00;fill-opacity:0.7;stroke:#f7aa00;stroke-opacity:0.7;stroke-width:0.3;" x="256.5807" xlink:href="#mc0d9ef8276" y="256.117175"/>
     <use style="fill:#f7aa00;fill-opacity:0.7;stroke:#f7aa00;stroke-opacity:0.7;stroke-width:0.3;" x="260.566573" xlink:href="#mc0d9ef8276" y="235.786351"/>
     <use style="fill:#f7aa00;fill-opacity:0.7;stroke:#f7aa00;stroke-opacity:0.7;stroke-width:0.3;" x="235.079833" xlink:href="#mc0d9ef8276" y="285.180368"/>
     <use style="fill:#f7aa00;fill-opacity:0.7;stroke:#f7aa00;stroke-opacity:0.7;stroke-width:0.3;" x="227.716001" xlink:href="#mc0d9ef8276" y="264.530054"/>
     <use style="fill:#f7aa00;fill-opacity:0.7;stroke:#f7aa00;stroke-opacity:0.7;stroke-width:0.3;" x="273.425607" xlink:href="#mc0d9ef8276" y="295.02472"/>
     <use style="fill:#f7aa00;fill-opacity:0.7;stroke:#f7aa00;stroke-opacity:0.7;stroke-width:0.3;" x="353.029946" xlink:href="#mc0d9ef8276" y="229.936577"/>
     <use style="fill:#f7aa00;fill-opacity:0.7;stroke:#f7aa00;stroke-opacity:0.7;stroke-width:0.3;" x="367.562995" xlink:href="#mc0d9ef8276" y="327.098067"/>
     <use style="fill:#f7aa00;fill-opacity:0.7;stroke:#f7aa00;stroke-opacity:0.7;stroke-width:0.3;" x="429.740012" xlink:href="#mc0d9ef8276" y="225.759984"/>
     <use style="fill:#f7aa00;fill-opacity:0.7;stroke:#f7aa00;stroke-opacity:0.7;stroke-width:0.3;" x="137.78277" xlink:href="#mc0d9ef8276" y="85.493748"/>
     <use style="fill:#f7aa00;fill-opacity:0.7;stroke:#f7aa00;stroke-opacity:0.7;stroke-width:0.3;" x="403.52252" xlink:href="#mc0d9ef8276" y="183.772103"/>
     <use style="fill:#f7aa00;fill-opacity:0.7;stroke:#f7aa00;stroke-opacity:0.7;stroke-width:0.3;" x="498.109091" xlink:href="#mc0d9ef8276" y="186.22285"/>
     <use style="fill:#f7aa00;fill-opacity:0.7;stroke:#f7aa00;stroke-opacity:0.7;stroke-width:0.3;" x="420.937194" xlink:href="#mc0d9ef8276" y="164.552824"/>
     <use style="fill:#f7aa00;fill-opacity:0.7;stroke:#f7aa00;stroke-opacity:0.7;stroke-width:0.3;" x="486.394192" xlink:href="#mc0d9ef8276" y="208.798799"/>
     <use style="fill:#f7aa00;fill-opacity:0.7;stroke:#f7aa00;stroke-opacity:0.7;stroke-width:0.3;" x="433.954791" xlink:href="#mc0d9ef8276" y="188.613468"/>
     <use style="fill:#f7aa00;fill-opacity:0.7;stroke:#f7aa00;stroke-opacity:0.7;stroke-width:0.3;" x="415.361356" xlink:href="#mc0d9ef8276" y="205.737432"/>
     <use style="fill:#f7aa00;fill-opacity:0.7;stroke:#f7aa00;stroke-opacity:0.7;stroke-width:0.3;" x="451.468318" xlink:href="#mc0d9ef8276" y="173.04231"/>
     <use style="fill:#f7aa00;fill-opacity:0.7;stroke:#f7aa00;stroke-opacity:0.7;stroke-width:0.3;" x="449.270459" xlink:href="#mc0d9ef8276" y="206.711996"/>
     <use style="fill:#f7aa00;fill-opacity:0.7;stroke:#f7aa00;stroke-opacity:0.7;stroke-width:0.3;" x="481.406099" xlink:href="#mc0d9ef8276" y="165.395696"/>
     <use style="fill:#f7aa00;fill-opacity:0.7;stroke:#f7aa00;stroke-opacity:0.7;stroke-width:0.3;" x="464.80014" xlink:href="#mc0d9ef8276" y="226.359269"/>
     <use style="fill:#f7aa00;fill-opacity:0.7;stroke:#f7aa00;stroke-opacity:0.7;stroke-width:0.3;" x="450.305156" xlink:href="#mc0d9ef8276" y="151.031994"/>
     <use style="fill:#f7aa00;fill-opacity:0.7;stroke:#f7aa00;stroke-opacity:0.7;stroke-width:0.3;" x="466.99329" xlink:href="#mc0d9ef8276" y="190.35355"/>
     <use style="fill:#f7aa00;fill-opacity:0.7;stroke:#f7aa00;stroke-opacity:0.7;stroke-width:0.3;" x="372.960547" xlink:href="#mc0d9ef8276" y="210.616662"/>
     <use style="fill:#f7aa00;fill-opacity:0.7;stroke:#f7aa00;stroke-opacity:0.7;stroke-width:0.3;" x="361.240613" xlink:href="#mc0d9ef8276" y="305.925468"/>
    </g>
   </g>
   <g id="patch_3">
    <path d="M 72 346.5 
L 72 47.52 
" style="fill:none;stroke:#cccccc;stroke-linecap:square;stroke-linejoin:miter;stroke-width:1.25;"/>
   </g>
   <g id="patch_4">
    <path d="M 518.4 346.5 
L 518.4 47.52 
" style="fill:none;stroke:#cccccc;stroke-linecap:square;stroke-linejoin:miter;stroke-width:1.25;"/>
   </g>
   <g id="patch_5">
    <path d="M 72 346.5 
L 518.4 346.5 
" style="fill:none;stroke:#cccccc;stroke-linecap:square;stroke-linejoin:miter;stroke-width:1.25;"/>
   </g>
   <g id="patch_6">
    <path d="M 72 47.52 
L 518.4 47.52 
" style="fill:none;stroke:#cccccc;stroke-linecap:square;stroke-linejoin:miter;stroke-width:1.25;"/>
   </g>
   <g id="text_1">
    <!-- TSNE Projection of 76 Documents -->
    <g style="fill:#262626;" transform="translate(203.830312 41.52)scale(0.12 -0.12)">
     <defs>
      <path d="M 35.15625 61.1875 
L 35.15625 0 
L 25.875 0 
L 25.875 61.1875 
L 2.25 61.1875 
L 2.25 68.796875 
L 58.796875 68.796875 
L 58.796875 61.1875 
z
" id="LiberationSans-84"/>
      <path d="M 62.109375 19 
Q 62.109375 14.65625 60.421875 10.984375 
Q 58.734375 7.328125 55.21875 4.65625 
Q 51.703125 2 46.359375 0.5 
Q 41.015625 -0.984375 33.6875 -0.984375 
Q 20.84375 -0.984375 13.671875 3.515625 
Q 6.5 8.015625 4.546875 16.5 
L 13.578125 18.3125 
Q 14.265625 15.625 15.671875 13.421875 
Q 17.09375 11.234375 19.5 9.640625 
Q 21.921875 8.0625 25.484375 7.171875 
Q 29.046875 6.296875 34.03125 6.296875 
Q 38.1875 6.296875 41.65625 7 
Q 45.125 7.71875 47.609375 9.171875 
Q 50.09375 10.640625 51.484375 12.953125 
Q 52.875 15.28125 52.875 18.5 
Q 52.875 21.875 51.34375 23.96875 
Q 49.8125 26.078125 47.015625 27.4375 
Q 44.234375 28.8125 40.375 29.734375 
Q 36.53125 30.671875 31.84375 31.734375 
Q 28.953125 32.375 26.046875 33.125 
Q 23.140625 33.890625 20.484375 34.9375 
Q 17.828125 35.984375 15.484375 37.390625 
Q 13.140625 38.8125 11.421875 40.796875 
Q 9.71875 42.78125 8.734375 45.390625 
Q 7.765625 48 7.765625 51.421875 
Q 7.765625 56.296875 9.734375 59.78125 
Q 11.71875 63.28125 15.234375 65.53125 
Q 18.75 67.78125 23.53125 68.796875 
Q 28.328125 69.828125 33.890625 69.828125 
Q 40.28125 69.828125 44.8125 68.828125 
Q 49.359375 67.828125 52.484375 65.8125 
Q 55.609375 63.8125 57.484375 60.859375 
Q 59.375 57.90625 60.5 54 
L 51.3125 52.390625 
Q 50.640625 54.890625 49.34375 56.84375 
Q 48.046875 58.796875 45.9375 60.109375 
Q 43.84375 61.421875 40.84375 62.109375 
Q 37.84375 62.796875 33.796875 62.796875 
Q 29 62.796875 25.75 61.9375 
Q 22.515625 61.078125 20.53125 59.609375 
Q 18.5625 58.15625 17.703125 56.171875 
Q 16.84375 54.203125 16.84375 51.90625 
Q 16.84375 48.828125 18.375 46.84375 
Q 19.921875 44.875 22.5625 43.546875 
Q 25.203125 42.234375 28.65625 41.359375 
Q 32.125 40.484375 36.03125 39.59375 
Q 39.203125 38.875 42.359375 38.109375 
Q 45.515625 37.359375 48.390625 36.296875 
Q 51.265625 35.25 53.78125 33.828125 
Q 56.296875 32.421875 58.15625 30.375 
Q 60.015625 28.328125 61.0625 25.53125 
Q 62.109375 22.75 62.109375 19 
z
" id="LiberationSans-83"/>
      <path d="M 52.828125 0 
L 16.015625 58.59375 
Q 16.109375 56.203125 16.265625 53.859375 
Q 16.359375 51.859375 16.421875 49.625 
Q 16.5 47.40625 16.5 45.703125 
L 16.5 0 
L 8.203125 0 
L 8.203125 68.796875 
L 19.046875 68.796875 
L 56.25 9.8125 
Q 56.109375 12.203125 55.953125 14.59375 
Q 55.859375 16.65625 55.765625 19.0625 
Q 55.671875 21.484375 55.671875 23.6875 
L 55.671875 68.796875 
L 64.0625 68.796875 
L 64.0625 0 
z
" id="LiberationSans-78"/>
      <path d="M 8.203125 0 
L 8.203125 68.796875 
L 60.40625 68.796875 
L 60.40625 61.1875 
L 17.53125 61.1875 
L 17.53125 39.109375 
L 57.46875 39.109375 
L 57.46875 31.59375 
L 17.53125 31.59375 
L 17.53125 7.625 
L 62.40625 7.625 
L 62.40625 0 
z
" id="LiberationSans-69"/>
      <path id="LiberationSans-32"/>
      <path d="M 61.421875 48.09375 
Q 61.421875 43.609375 59.9375 39.71875 
Q 58.453125 35.84375 55.5 32.984375 
Q 52.546875 30.125 48.09375 28.46875 
Q 43.65625 26.8125 37.75 26.8125 
L 17.53125 26.8125 
L 17.53125 0 
L 8.203125 0 
L 8.203125 68.796875 
L 37.15625 68.796875 
Q 43.265625 68.796875 47.796875 67.3125 
Q 52.34375 65.828125 55.375 63.109375 
Q 58.40625 60.40625 59.90625 56.5625 
Q 61.421875 52.734375 61.421875 48.09375 
z
M 52.046875 48 
Q 52.046875 54.546875 48.046875 57.9375 
Q 44.046875 61.328125 36.03125 61.328125 
L 17.53125 61.328125 
L 17.53125 34.1875 
L 36.421875 34.1875 
Q 44.484375 34.1875 48.265625 37.75 
Q 52.046875 41.3125 52.046875 48 
z
" id="LiberationSans-80"/>
      <path d="M 6.9375 0 
L 6.9375 40.53125 
Q 6.9375 42.1875 6.90625 43.921875 
Q 6.890625 45.65625 6.828125 47.265625 
Q 6.78125 48.875 6.734375 50.28125 
Q 6.6875 51.703125 6.640625 52.828125 
L 14.9375 52.828125 
Q 14.984375 51.703125 15.0625 50.265625 
Q 15.140625 48.828125 15.203125 47.3125 
Q 15.28125 45.796875 15.296875 44.40625 
Q 15.328125 43.015625 15.328125 42.046875 
L 15.53125 42.046875 
Q 16.453125 45.0625 17.5 47.28125 
Q 18.5625 49.515625 19.96875 50.953125 
Q 21.390625 52.390625 23.34375 53.09375 
Q 25.296875 53.8125 28.078125 53.8125 
Q 29.15625 53.8125 30.125 53.640625 
Q 31.109375 53.46875 31.640625 53.328125 
L 31.640625 45.265625 
Q 30.765625 45.515625 29.59375 45.625 
Q 28.421875 45.75 26.953125 45.75 
Q 23.921875 45.75 21.796875 44.375 
Q 19.671875 43.015625 18.328125 40.59375 
Q 17 38.1875 16.359375 34.84375 
Q 15.71875 31.5 15.71875 27.546875 
L 15.71875 0 
z
" id="LiberationSans-114"/>
      <path d="M 51.421875 26.46875 
Q 51.421875 12.59375 45.3125 5.796875 
Q 39.203125 -0.984375 27.59375 -0.984375 
Q 22.078125 -0.984375 17.71875 0.671875 
Q 13.375 2.34375 10.375 5.765625 
Q 7.375 9.1875 5.78125 14.328125 
Q 4.203125 19.484375 4.203125 26.46875 
Q 4.203125 53.8125 27.875 53.8125 
Q 34.03125 53.8125 38.5 52.09375 
Q 42.96875 50.390625 45.828125 46.96875 
Q 48.6875 43.5625 50.046875 38.421875 
Q 51.421875 33.296875 51.421875 26.46875 
z
M 42.1875 26.46875 
Q 42.1875 32.625 41.234375 36.625 
Q 40.28125 40.625 38.453125 43.015625 
Q 36.625 45.40625 33.984375 46.359375 
Q 31.34375 47.3125 28.03125 47.3125 
Q 24.65625 47.3125 21.9375 46.3125 
Q 19.234375 45.3125 17.328125 42.890625 
Q 15.4375 40.484375 14.421875 36.46875 
Q 13.421875 32.46875 13.421875 26.46875 
Q 13.421875 20.3125 14.5 16.28125 
Q 15.578125 12.25 17.453125 9.859375 
Q 19.34375 7.46875 21.90625 6.484375 
Q 24.46875 5.515625 27.484375 5.515625 
Q 30.859375 5.515625 33.59375 6.46875 
Q 36.328125 7.421875 38.234375 9.8125 
Q 40.140625 12.203125 41.15625 16.25 
Q 42.1875 20.3125 42.1875 26.46875 
z
" id="LiberationSans-111"/>
      <path d="M 6.6875 64.0625 
L 6.6875 72.46875 
L 15.484375 72.46875 
L 15.484375 64.0625 
z
M 15.484375 -6.546875 
Q 15.484375 -9.578125 14.96875 -12.15625 
Q 14.453125 -14.75 13.125 -16.65625 
Q 11.8125 -18.5625 9.546875 -19.65625 
Q 7.28125 -20.75 3.765625 -20.75 
Q 2.09375 -20.75 0.5 -20.65625 
Q -1.078125 -20.5625 -2.4375 -20.3125 
L -2.4375 -13.53125 
Q -1.8125 -13.625 -0.921875 -13.71875 
Q -0.046875 -13.8125 0.59375 -13.8125 
Q 2.4375 -13.8125 3.625 -13.328125 
Q 4.828125 -12.84375 5.515625 -11.796875 
Q 6.203125 -10.75 6.4375 -9.109375 
Q 6.6875 -7.46875 6.6875 -5.21875 
L 6.6875 52.828125 
L 15.484375 52.828125 
z
" id="LiberationSans-106"/>
      <path d="M 13.484375 24.5625 
Q 13.484375 20.40625 14.328125 16.90625 
Q 15.1875 13.421875 16.96875 10.90625 
Q 18.75 8.40625 21.53125 7 
Q 24.3125 5.609375 28.21875 5.609375 
Q 33.9375 5.609375 37.375 7.90625 
Q 40.828125 10.203125 42.046875 13.71875 
L 49.75 11.53125 
Q 48.921875 9.328125 47.4375 7.109375 
Q 45.953125 4.890625 43.453125 3.09375 
Q 40.96875 1.3125 37.234375 0.15625 
Q 33.5 -0.984375 28.21875 -0.984375 
Q 16.5 -0.984375 10.375 6 
Q 4.25 12.984375 4.25 26.765625 
Q 4.25 34.1875 6.09375 39.328125 
Q 7.953125 44.484375 11.171875 47.703125 
Q 14.40625 50.921875 18.703125 52.359375 
Q 23 53.8125 27.875 53.8125 
Q 34.515625 53.8125 38.984375 51.65625 
Q 43.453125 49.515625 46.15625 45.71875 
Q 48.875 41.9375 50.015625 36.8125 
Q 51.171875 31.6875 51.171875 25.734375 
L 51.171875 24.5625 
z
M 42.09375 31.296875 
Q 41.359375 39.65625 37.84375 43.484375 
Q 34.328125 47.3125 27.734375 47.3125 
Q 25.53125 47.3125 23.109375 46.609375 
Q 20.703125 45.90625 18.65625 44.09375 
Q 16.609375 42.28125 15.1875 39.171875 
Q 13.765625 36.078125 13.578125 31.296875 
z
" id="LiberationSans-101"/>
      <path d="M 13.421875 26.65625 
Q 13.421875 22.125 14.078125 18.3125 
Q 14.75 14.5 16.3125 11.734375 
Q 17.875 8.984375 20.4375 7.46875 
Q 23 5.953125 26.765625 5.953125 
Q 31.453125 5.953125 34.59375 8.484375 
Q 37.75 11.03125 38.484375 16.3125 
L 47.359375 15.71875 
Q 46.921875 12.453125 45.453125 9.421875 
Q 44 6.390625 41.484375 4.09375 
Q 38.96875 1.8125 35.34375 0.40625 
Q 31.734375 -0.984375 27 -0.984375 
Q 20.796875 -0.984375 16.453125 1.109375 
Q 12.109375 3.21875 9.390625 6.90625 
Q 6.6875 10.59375 5.46875 15.59375 
Q 4.25 20.609375 4.25 26.46875 
Q 4.25 31.78125 5.125 35.859375 
Q 6 39.9375 7.59375 42.984375 
Q 9.1875 46.046875 11.328125 48.125 
Q 13.484375 50.203125 15.984375 51.4375 
Q 18.5 52.6875 21.28125 53.25 
Q 24.078125 53.8125 26.90625 53.8125 
Q 31.34375 53.8125 34.8125 52.59375 
Q 38.28125 51.375 40.796875 49.25 
Q 43.3125 47.125 44.875 44.234375 
Q 46.4375 41.359375 47.078125 38.03125 
L 38.03125 37.359375 
Q 37.359375 41.75 34.5625 44.328125 
Q 31.78125 46.921875 26.65625 46.921875 
Q 22.90625 46.921875 20.390625 45.671875 
Q 17.875 44.4375 16.3125 41.921875 
Q 14.75 39.40625 14.078125 35.59375 
Q 13.421875 31.78125 13.421875 26.65625 
z
" id="LiberationSans-99"/>
      <path d="M 27.046875 0.390625 
Q 25.046875 -0.140625 22.96875 -0.453125 
Q 20.90625 -0.78125 18.171875 -0.78125 
Q 7.625 -0.78125 7.625 11.1875 
L 7.625 46.4375 
L 1.515625 46.4375 
L 1.515625 52.828125 
L 7.953125 52.828125 
L 10.546875 64.65625 
L 16.40625 64.65625 
L 16.40625 52.828125 
L 26.171875 52.828125 
L 26.171875 46.4375 
L 16.40625 46.4375 
L 16.40625 13.09375 
Q 16.40625 9.28125 17.640625 7.734375 
Q 18.890625 6.203125 21.96875 6.203125 
Q 23.25 6.203125 24.4375 6.390625 
Q 25.640625 6.59375 27.046875 6.890625 
z
" id="LiberationSans-116"/>
      <path d="M 6.6875 64.0625 
L 6.6875 72.46875 
L 15.484375 72.46875 
L 15.484375 64.0625 
z
M 6.6875 0 
L 6.6875 52.828125 
L 15.484375 52.828125 
L 15.484375 0 
z
" id="LiberationSans-105"/>
      <path d="M 40.28125 0 
L 40.28125 33.5 
Q 40.28125 37.359375 39.71875 39.9375 
Q 39.15625 42.53125 37.890625 44.109375 
Q 36.625 45.703125 34.546875 46.359375 
Q 32.46875 47.015625 29.390625 47.015625 
Q 26.265625 47.015625 23.75 45.921875 
Q 21.234375 44.828125 19.453125 42.75 
Q 17.671875 40.671875 16.6875 37.625 
Q 15.71875 34.578125 15.71875 30.609375 
L 15.71875 0 
L 6.9375 0 
L 6.9375 41.546875 
Q 6.9375 43.21875 6.90625 45.046875 
Q 6.890625 46.875 6.828125 48.5 
Q 6.78125 50.140625 6.734375 51.3125 
Q 6.6875 52.484375 6.640625 52.828125 
L 14.9375 52.828125 
Q 14.984375 52.59375 15.03125 51.515625 
Q 15.09375 50.4375 15.15625 49.046875 
Q 15.234375 47.65625 15.28125 46.21875 
Q 15.328125 44.78125 15.328125 43.796875 
L 15.484375 43.796875 
Q 16.75 46.09375 18.265625 47.953125 
Q 19.78125 49.8125 21.78125 51.09375 
Q 23.78125 52.390625 26.359375 53.09375 
Q 28.953125 53.8125 32.375 53.8125 
Q 36.765625 53.8125 39.9375 52.734375 
Q 43.109375 51.65625 45.15625 49.40625 
Q 47.21875 47.171875 48.171875 43.625 
Q 49.125 40.09375 49.125 35.203125 
L 49.125 0 
z
" id="LiberationSans-110"/>
      <path d="M 17.625 46.4375 
L 17.625 0 
L 8.84375 0 
L 8.84375 46.4375 
L 1.421875 46.4375 
L 1.421875 52.828125 
L 8.84375 52.828125 
L 8.84375 58.796875 
Q 8.84375 61.671875 9.375 64.140625 
Q 9.90625 66.609375 11.34375 68.4375 
Q 12.796875 70.265625 15.28125 71.3125 
Q 17.78125 72.359375 21.734375 72.359375 
Q 23.296875 72.359375 24.96875 72.21875 
Q 26.65625 72.078125 27.9375 71.78125 
L 27.9375 65.09375 
Q 27.09375 65.234375 26 65.359375 
Q 24.90625 65.484375 24.03125 65.484375 
Q 22.078125 65.484375 20.828125 64.9375 
Q 19.578125 64.40625 18.875 63.40625 
Q 18.171875 62.40625 17.890625 60.9375 
Q 17.625 59.46875 17.625 57.5625 
L 17.625 52.828125 
L 27.9375 52.828125 
L 27.9375 46.4375 
z
" id="LiberationSans-102"/>
      <path d="M 50.59375 61.671875 
Q 45.40625 53.765625 41.0625 46.453125 
Q 36.71875 39.15625 33.59375 31.75 
Q 30.46875 24.359375 28.734375 16.578125 
Q 27 8.796875 27 0 
L 17.828125 0 
Q 17.828125 8.25 19.78125 16.1875 
Q 21.734375 24.125 25.046875 31.765625 
Q 28.375 39.40625 32.765625 46.78125 
Q 37.15625 54.15625 42.09375 61.328125 
L 5.125 61.328125 
L 5.125 68.796875 
L 50.59375 68.796875 
z
" id="LiberationSans-55"/>
      <path d="M 51.21875 22.515625 
Q 51.21875 17.328125 49.78125 13 
Q 48.34375 8.6875 45.53125 5.578125 
Q 42.71875 2.484375 38.5625 0.75 
Q 34.421875 -0.984375 29 -0.984375 
Q 23 -0.984375 18.5 1.3125 
Q 14.015625 3.609375 11.03125 7.921875 
Q 8.0625 12.25 6.5625 18.53125 
Q 5.078125 24.8125 5.078125 32.8125 
Q 5.078125 42 6.765625 48.921875 
Q 8.453125 55.859375 11.625 60.5 
Q 14.796875 65.140625 19.359375 67.484375 
Q 23.921875 69.828125 29.6875 69.828125 
Q 33.203125 69.828125 36.28125 69.09375 
Q 39.359375 68.359375 41.875 66.71875 
Q 44.390625 65.09375 46.28125 62.40625 
Q 48.1875 59.71875 49.3125 55.8125 
L 40.921875 54.296875 
Q 39.546875 58.734375 36.546875 60.71875 
Q 33.546875 62.703125 29.59375 62.703125 
Q 25.984375 62.703125 23.046875 60.984375 
Q 20.125 59.28125 18.0625 55.875 
Q 16.015625 52.484375 14.90625 47.359375 
Q 13.8125 42.234375 13.8125 35.40625 
Q 16.21875 39.84375 20.5625 42.15625 
Q 24.90625 44.484375 30.515625 44.484375 
Q 35.203125 44.484375 39.015625 42.96875 
Q 42.828125 41.453125 45.53125 38.59375 
Q 48.25 35.75 49.734375 31.671875 
Q 51.21875 27.59375 51.21875 22.515625 
z
M 42.28125 22.125 
Q 42.28125 25.6875 41.40625 28.5625 
Q 40.53125 31.453125 38.765625 33.46875 
Q 37.015625 35.5 34.421875 36.59375 
Q 31.84375 37.703125 28.421875 37.703125 
Q 26.03125 37.703125 23.578125 36.984375 
Q 21.140625 36.28125 19.15625 34.6875 
Q 17.1875 33.109375 15.9375 30.515625 
Q 14.703125 27.9375 14.703125 24.21875 
Q 14.703125 20.40625 15.671875 17.109375 
Q 16.65625 13.8125 18.484375 11.375 
Q 20.3125 8.9375 22.890625 7.515625 
Q 25.484375 6.109375 28.71875 6.109375 
Q 31.890625 6.109375 34.40625 7.203125 
Q 36.921875 8.296875 38.671875 10.375 
Q 40.4375 12.453125 41.359375 15.421875 
Q 42.28125 18.40625 42.28125 22.125 
z
" id="LiberationSans-54"/>
      <path d="M 67.4375 35.109375 
Q 67.4375 26.515625 64.84375 19.9375 
Q 62.25 13.375 57.75 8.953125 
Q 53.265625 4.546875 47.140625 2.265625 
Q 41.015625 0 33.9375 0 
L 8.203125 0 
L 8.203125 68.796875 
L 30.953125 68.796875 
Q 38.921875 68.796875 45.625 66.8125 
Q 52.34375 64.84375 57.171875 60.71875 
Q 62.015625 56.59375 64.71875 50.234375 
Q 67.4375 43.890625 67.4375 35.109375 
z
M 58.0625 35.109375 
Q 58.0625 42.09375 56.046875 47.046875 
Q 54.046875 52 50.4375 55.171875 
Q 46.828125 58.34375 41.796875 59.828125 
Q 36.765625 61.328125 30.765625 61.328125 
L 17.53125 61.328125 
L 17.53125 7.46875 
L 32.859375 7.46875 
Q 38.28125 7.46875 42.890625 9.21875 
Q 47.515625 10.984375 50.875 14.453125 
Q 54.25 17.921875 56.15625 23.09375 
Q 58.0625 28.265625 58.0625 35.109375 
z
" id="LiberationSans-68"/>
      <path d="M 15.328125 52.828125 
L 15.328125 19.34375 
Q 15.328125 15.484375 15.890625 12.890625 
Q 16.453125 10.296875 17.71875 8.703125 
Q 19 7.125 21.0625 6.46875 
Q 23.140625 5.8125 26.21875 5.8125 
Q 29.34375 5.8125 31.859375 6.90625 
Q 34.375 8.015625 36.15625 10.078125 
Q 37.9375 12.15625 38.90625 15.203125 
Q 39.890625 18.265625 39.890625 22.21875 
L 39.890625 52.828125 
L 48.6875 52.828125 
L 48.6875 11.28125 
Q 48.6875 9.625 48.703125 7.78125 
Q 48.734375 5.953125 48.78125 4.3125 
Q 48.828125 2.6875 48.875 1.515625 
Q 48.921875 0.34375 48.96875 0 
L 40.671875 0 
Q 40.625 0.25 40.578125 1.3125 
Q 40.53125 2.390625 40.453125 3.78125 
Q 40.375 5.171875 40.328125 6.609375 
Q 40.28125 8.0625 40.28125 9.03125 
L 40.140625 9.03125 
Q 38.875 6.734375 37.359375 4.875 
Q 35.84375 3.03125 33.84375 1.734375 
Q 31.84375 0.4375 29.25 -0.265625 
Q 26.65625 -0.984375 23.25 -0.984375 
Q 18.84375 -0.984375 15.671875 0.09375 
Q 12.5 1.171875 10.453125 3.421875 
Q 8.40625 5.671875 7.453125 9.1875 
Q 6.5 12.703125 6.5 17.625 
L 6.5 52.828125 
z
" id="LiberationSans-117"/>
      <path d="M 37.5 0 
L 37.5 33.5 
Q 37.5 37.359375 37.015625 39.9375 
Q 36.53125 42.53125 35.375 44.109375 
Q 34.234375 45.703125 32.375 46.359375 
Q 30.515625 47.015625 27.828125 47.015625 
Q 25.046875 47.015625 22.796875 45.921875 
Q 20.5625 44.828125 18.96875 42.75 
Q 17.390625 40.671875 16.53125 37.625 
Q 15.671875 34.578125 15.671875 30.609375 
L 15.671875 0 
L 6.9375 0 
L 6.9375 41.546875 
Q 6.9375 43.21875 6.90625 45.046875 
Q 6.890625 46.875 6.828125 48.5 
Q 6.78125 50.140625 6.734375 51.3125 
Q 6.6875 52.484375 6.640625 52.828125 
L 14.9375 52.828125 
Q 14.984375 52.59375 15.03125 51.515625 
Q 15.09375 50.4375 15.15625 49.046875 
Q 15.234375 47.65625 15.28125 46.21875 
Q 15.328125 44.78125 15.328125 43.796875 
L 15.484375 43.796875 
Q 16.65625 46.09375 18.015625 47.953125 
Q 19.390625 49.8125 21.21875 51.09375 
Q 23.046875 52.390625 25.40625 53.09375 
Q 27.78125 53.8125 30.90625 53.8125 
Q 36.921875 53.8125 40.40625 51.421875 
Q 43.890625 49.03125 45.265625 43.796875 
L 45.40625 43.796875 
Q 46.578125 46.09375 48.046875 47.953125 
Q 49.515625 49.8125 51.46875 51.09375 
Q 53.421875 52.390625 55.859375 53.09375 
Q 58.296875 53.8125 61.421875 53.8125 
Q 65.4375 53.8125 68.328125 52.734375 
Q 71.234375 51.65625 73.09375 49.40625 
Q 74.953125 47.171875 75.828125 43.625 
Q 76.703125 40.09375 76.703125 35.203125 
L 76.703125 0 
L 68.015625 0 
L 68.015625 33.5 
Q 68.015625 37.359375 67.53125 39.9375 
Q 67.046875 42.53125 65.890625 44.109375 
Q 64.75 45.703125 62.890625 46.359375 
Q 61.03125 47.015625 58.34375 47.015625 
Q 55.5625 47.015625 53.3125 45.96875 
Q 51.078125 44.921875 49.484375 42.875 
Q 47.90625 40.828125 47.046875 37.75 
Q 46.1875 34.671875 46.1875 30.609375 
L 46.1875 0 
z
" id="LiberationSans-109"/>
      <path d="M 46.390625 14.59375 
Q 46.390625 10.890625 44.9375 7.984375 
Q 43.5 5.078125 40.765625 3.09375 
Q 38.03125 1.125 34.046875 0.0625 
Q 30.078125 -0.984375 24.953125 -0.984375 
Q 20.359375 -0.984375 16.671875 -0.265625 
Q 12.984375 0.4375 10.203125 2 
Q 7.421875 3.5625 5.53125 6.125 
Q 3.65625 8.6875 2.78125 12.40625 
L 10.546875 13.921875 
Q 11.671875 9.671875 15.1875 7.6875 
Q 18.703125 5.71875 24.953125 5.71875 
Q 27.78125 5.71875 30.140625 6.109375 
Q 32.515625 6.5 34.21875 7.453125 
Q 35.9375 8.40625 36.890625 9.984375 
Q 37.84375 11.578125 37.84375 13.921875 
Q 37.84375 16.3125 36.71875 17.84375 
Q 35.59375 19.390625 33.59375 20.40625 
Q 31.59375 21.4375 28.734375 22.1875 
Q 25.875 22.953125 22.46875 23.875 
Q 19.28125 24.703125 16.15625 25.734375 
Q 13.03125 26.765625 10.515625 28.4375 
Q 8.015625 30.125 6.453125 32.609375 
Q 4.890625 35.109375 4.890625 38.875 
Q 4.890625 46.09375 10.03125 49.875 
Q 15.1875 53.65625 25.046875 53.65625 
Q 33.796875 53.65625 38.9375 50.578125 
Q 44.09375 47.515625 45.453125 40.71875 
L 37.546875 39.75 
Q 37.109375 41.796875 35.9375 43.1875 
Q 34.765625 44.578125 33.109375 45.4375 
Q 31.453125 46.296875 29.375 46.65625 
Q 27.296875 47.015625 25.046875 47.015625 
Q 19.09375 47.015625 16.25 45.203125 
Q 13.421875 43.40625 13.421875 39.75 
Q 13.421875 37.59375 14.46875 36.203125 
Q 15.53125 34.8125 17.40625 33.859375 
Q 19.28125 32.90625 21.921875 32.203125 
Q 24.5625 31.5 27.734375 30.71875 
Q 29.828125 30.171875 32.03125 29.5625 
Q 34.234375 28.953125 36.296875 28.09375 
Q 38.375 27.25 40.203125 26.09375 
Q 42.046875 24.953125 43.40625 23.34375 
Q 44.78125 21.734375 45.578125 19.578125 
Q 46.390625 17.4375 46.390625 14.59375 
z
" id="LiberationSans-115"/>
     </defs>
     <use xlink:href="#LiberationSans-84"/>
     <use x="61.083984" xlink:href="#LiberationSans-83"/>
     <use x="127.783203" xlink:href="#LiberationSans-78"/>
     <use x="200" xlink:href="#LiberationSans-69"/>
     <use x="266.699219" xlink:href="#LiberationSans-32"/>
     <use x="294.482422" xlink:href="#LiberationSans-80"/>
     <use x="361.181641" xlink:href="#LiberationSans-114"/>
     <use x="394.482422" xlink:href="#LiberationSans-111"/>
     <use x="450.097656" xlink:href="#LiberationSans-106"/>
     <use x="472.314453" xlink:href="#LiberationSans-101"/>
     <use x="527.929688" xlink:href="#LiberationSans-99"/>
     <use x="577.929688" xlink:href="#LiberationSans-116"/>
     <use x="605.712891" xlink:href="#LiberationSans-105"/>
     <use x="627.929688" xlink:href="#LiberationSans-111"/>
     <use x="683.544922" xlink:href="#LiberationSans-110"/>
     <use x="739.160156" xlink:href="#LiberationSans-32"/>
     <use x="766.943359" xlink:href="#LiberationSans-111"/>
     <use x="822.558594" xlink:href="#LiberationSans-102"/>
     <use x="850.341797" xlink:href="#LiberationSans-32"/>
     <use x="878.125" xlink:href="#LiberationSans-55"/>
     <use x="933.740234" xlink:href="#LiberationSans-54"/>
     <use x="989.355469" xlink:href="#LiberationSans-32"/>
     <use x="1017.138672" xlink:href="#LiberationSans-68"/>
     <use x="1089.355469" xlink:href="#LiberationSans-111"/>
     <use x="1144.970703" xlink:href="#LiberationSans-99"/>
     <use x="1194.970703" xlink:href="#LiberationSans-117"/>
     <use x="1250.585938" xlink:href="#LiberationSans-109"/>
     <use x="1333.886719" xlink:href="#LiberationSans-101"/>
     <use x="1389.501953" xlink:href="#LiberationSans-110"/>
     <use x="1445.117188" xlink:href="#LiberationSans-116"/>
     <use x="1472.900391" xlink:href="#LiberationSans-115"/>
    </g>
   </g>
  </g>
 </g>
 <defs>
  <clipPath id="p696d5f0367">
   <rect height="298.98" width="446.4" x="72" y="47.52"/>
  </clipPath>
 </defs>
</svg>
